<svg width="27" height="27" viewBox="0 0 27 27" fill="none" xmlns="http://www.w3.org/2000/svg">
<path d="M26.913 7.96918C26.8979 6.83551 26.6853 5.7131 26.2848 4.65218C25.9375 3.7573 25.407 2.94458 24.7273 2.26596C24.0475 1.58734 23.2334 1.05774 22.3371 0.710999C21.288 0.317865 20.1798 0.10529 19.0595 0.0823263C17.6172 0.0179622 17.1599 0 13.4985 0C9.83713 0 9.36784 1.00371e-07 7.93597 0.0823263C6.81621 0.105458 5.70849 0.318031 4.65993 0.710999C3.76341 1.0575 2.94922 1.58702 2.26944 2.26567C1.58966 2.94432 1.05926 3.75716 0.712183 4.65218C0.317605 5.69867 0.105138 6.8048 0.0839627 7.92278C0.0194913 9.36423 0 9.82077 0 13.4761C0 17.1313 -1.11709e-08 17.5984 0.0839627 19.0293C0.106453 20.149 0.317859 21.2536 0.712183 22.3029C1.05985 23.1977 1.59064 24.0102 2.27064 24.6885C2.95065 25.3669 3.76492 25.8962 4.66143 26.2426C5.70711 26.6515 6.81503 26.8793 7.93747 26.9162C9.38133 26.9805 9.83863 27 13.5 27C17.1614 27 17.6307 27 19.0625 26.9162C20.1828 26.8942 21.2911 26.6821 22.3401 26.289C23.2362 25.9419 24.0501 25.4121 24.7298 24.7335C25.4095 24.055 25.9401 23.2425 26.2878 22.3478C26.6821 21.3 26.8935 20.1954 26.916 19.0742C26.9805 17.6343 27 17.1777 27 13.521C26.997 9.86567 26.997 9.40165 26.913 7.96918ZM13.4895 20.3885C9.66021 20.3885 6.55808 17.2915 6.55808 13.4686C6.55808 9.64564 9.66021 6.54868 13.4895 6.54868C15.3278 6.54868 17.0909 7.27773 18.3908 8.57547C19.6907 9.8732 20.4209 11.6333 20.4209 13.4686C20.4209 15.3038 19.6907 17.0639 18.3908 18.3617C17.0909 19.6594 15.3278 20.3885 13.4895 20.3885ZM20.6968 7.90631C19.8017 7.90631 19.0805 7.18483 19.0805 6.29272C19.0805 6.08091 19.1223 5.87119 19.2035 5.67551C19.2847 5.47983 19.4037 5.30203 19.5537 5.15226C19.7037 5.0025 19.8818 4.88369 20.0778 4.80264C20.2738 4.72159 20.4839 4.67987 20.6961 4.67987C20.9082 4.67987 21.1183 4.72159 21.3143 4.80264C21.5103 4.88369 21.6884 5.0025 21.8384 5.15226C21.9884 5.30203 22.1074 5.47983 22.1886 5.67551C22.2698 5.87119 22.3116 6.08091 22.3116 6.29272C22.3116 7.18483 21.5889 7.90631 20.6968 7.90631Z" fill="black"/>
<path d="M13.5 18C15.9853 18 18 15.9853 18 13.5C18 11.0147 15.9853 9 13.5 9C11.0147 9 9 11.0147 9 13.5C9 15.9853 11.0147 18 13.5 18Z" fill="black"/>
</svg>
