<svg width="45" height="45" viewBox="0 0 45 45" fill="none" xmlns="http://www.w3.org/2000/svg">
<path d="M8.19563 36C8.30813 36 8.42063 35.9887 8.53313 35.9719L17.9944 34.3125C18.1069 34.29 18.2138 34.2394 18.2925 34.155L42.1369 10.3106C42.189 10.2586 42.2304 10.1968 42.2586 10.1287C42.2868 10.0607 42.3014 9.98773 42.3014 9.91406C42.3014 9.84039 42.2868 9.76745 42.2586 9.6994C42.2304 9.63135 42.189 9.56954 42.1369 9.5175L32.7881 0.163125C32.6813 0.0562501 32.5406 0 32.3887 0C32.2369 0 32.0962 0.0562501 31.9894 0.163125L8.145 24.0075C8.06062 24.0919 8.01 24.1931 7.9875 24.3056L6.32812 33.7669C6.2734 34.0682 6.29296 34.3783 6.38509 34.6704C6.47722 34.9625 6.63916 35.2277 6.85687 35.4431C7.22812 35.8031 7.695 36 8.19563 36V36ZM11.9869 26.19L32.3887 5.79375L36.5119 9.91687L16.11 30.3131L11.1094 31.1962L11.9869 26.19V26.19ZM43.2 40.725H1.8C0.804375 40.725 0 41.5294 0 42.525V44.55C0 44.7975 0.2025 45 0.45 45H44.55C44.7975 45 45 44.7975 45 44.55V42.525C45 41.5294 44.1956 40.725 43.2 40.725Z" fill="#4277DD"/>
</svg>
