<svg width="27" height="27" viewBox="0 0 27 27" fill="none" xmlns="http://www.w3.org/2000/svg">
<path d="M25.92 0H1.08C0.482625 0 0 0.482625 0 1.08V25.92C0 26.5174 0.482625 27 1.08 27H25.92C26.5174 27 27 26.5174 27 25.92V1.08C27 0.482625 26.5174 0 25.92 0ZM20.7664 9.77738C20.7765 9.936 20.7765 10.1014 20.7765 10.2634C20.7765 15.2179 17.0033 20.925 10.1081 20.925C7.98188 20.925 6.01088 20.3074 4.35038 19.2443C4.65413 19.278 4.94438 19.2915 5.25488 19.2915C7.00988 19.2915 8.62313 18.6975 9.909 17.6918C8.262 17.658 6.87825 16.578 6.40575 15.093C6.98287 15.1774 7.50262 15.1774 8.09663 15.0255C7.24858 14.8532 6.48633 14.3926 5.93938 13.722C5.39243 13.0514 5.09452 12.2121 5.09625 11.3468V11.2995C5.59238 11.5796 6.17625 11.7517 6.78713 11.7754C6.27359 11.4331 5.85245 10.9695 5.56103 10.4255C5.26961 9.88149 5.11692 9.274 5.1165 8.65688C5.1165 7.95825 5.29875 7.32038 5.62613 6.76688C6.56742 7.92564 7.74202 8.87335 9.07357 9.54843C10.4051 10.2235 11.8638 10.6108 13.3549 10.6853C12.825 8.13713 14.7285 6.075 17.0168 6.075C18.0968 6.075 19.0688 6.52725 19.7539 7.25625C20.601 7.09763 21.411 6.78038 22.1333 6.35512C21.8531 7.2225 21.2659 7.95487 20.4862 8.41725C21.2423 8.33625 21.9713 8.127 22.6463 7.83338C22.1366 8.58263 21.4988 9.2475 20.7664 9.77738Z" fill="black"/>
</svg>
