<svg width="27" height="27" viewBox="0 0 27 27" fill="none" xmlns="http://www.w3.org/2000/svg">
<path d="M4.78408 0C2.13386 0 0 2.13386 0 4.78408V22.216C0 24.8662 2.13386 27 4.78408 27H17.6142L27 13.5034L17.6142 2.7e-05H4.78408V0ZM11.9686 4.9292H15.0171C15.2042 4.9292 15.3115 4.99765 15.3115 5.1587V21.9595C15.3115 22.0738 15.2577 22.1425 15.0972 22.1425H13.4392C13.333 22.1425 13.2528 22.0508 13.2528 21.9822V15.7621H11.9146L8.19788 21.9822C8.14452 22.0967 8.03771 22.1425 7.87725 22.1425H5.9788C5.7655 22.1425 5.63174 21.9822 5.76534 21.7755L9.85584 15.4406C7.66379 14.6144 6.43359 12.9389 6.43359 10.6667C6.43359 6.87955 8.97404 4.92917 11.9686 4.92917L11.9686 4.9292ZM11.8885 6.39733C10.2573 6.39733 8.65266 7.56783 8.65266 10.4372C8.65266 13.1915 10.3642 14.2932 12.1289 14.2932H13.2528V6.39733H11.8885Z" fill="black"/>
</svg>
