<svg width="45" height="45" viewBox="0 0 45 45" fill="none" xmlns="http://www.w3.org/2000/svg">
<path d="M29.9237 15.4118L19.2962 26.0763L15.1396 21.8915C14.7165 21.4679 14.1427 21.2299 13.5443 21.2299C12.946 21.2299 12.3722 21.4679 11.9491 21.8915C11.526 22.3152 11.2883 22.8898 11.2883 23.489C11.2883 23.7856 11.3467 24.0794 11.46 24.3535C11.5734 24.6276 11.7396 24.8766 11.9491 25.0864L17.701 30.8461C17.9098 31.057 18.1583 31.2244 18.4321 31.3386C18.7059 31.4528 18.9996 31.5117 19.2962 31.5117C19.5928 31.5117 19.8865 31.4528 20.1603 31.3386C20.4341 31.2244 20.6826 31.057 20.8915 30.8461L33.1143 18.6067C33.3237 18.3969 33.4899 18.1479 33.6033 17.8738C33.7167 17.5997 33.775 17.3059 33.775 17.0092C33.775 16.7126 33.7167 16.4188 33.6033 16.1447C33.4899 15.8706 33.3237 15.6216 33.1143 15.4118C32.9048 15.202 32.6561 15.0356 32.3823 14.9221C32.1086 14.8086 31.8153 14.7501 31.519 14.7501C31.2227 14.7501 30.9294 14.8086 30.6557 14.9221C30.3819 15.0356 30.1332 15.202 29.9237 15.4118ZM22.5317 0C19.5811 0 16.6594 0.581954 13.9334 1.71263C11.2074 2.84332 8.73053 4.50058 6.64415 6.58981C2.43052 10.8092 0.0633301 16.5319 0.0633301 22.499C0.0436879 27.6943 1.84011 32.7328 5.14117 36.7409L0.647507 41.2407C0.335741 41.5571 0.124548 41.9588 0.0405741 42.3953C-0.0433993 42.8317 0.00361043 43.2833 0.175672 43.6931C0.362289 44.0979 0.664817 44.4381 1.04485 44.6704C1.42489 44.9027 1.86529 45.0168 2.31016 44.998H22.5317C28.4906 44.998 34.2055 42.6276 38.4192 38.4082C42.6328 34.1888 45 28.4661 45 22.499C45 16.5319 42.6328 10.8092 38.4192 6.58981C34.2055 2.37042 28.4906 0 22.5317 0ZM22.5317 40.4982H7.72503L9.81459 38.4058C10.2331 37.9843 10.4679 37.414 10.4679 36.8196C10.4679 36.2252 10.2331 35.655 9.81459 35.2334C6.87255 32.2907 5.04046 28.4175 4.63045 24.2737C4.22044 20.13 5.25788 15.9721 7.56602 12.5084C9.87416 9.04469 13.3102 6.48952 17.2887 5.27821C21.2672 4.06689 25.5421 4.27437 29.385 5.8653C33.2279 7.45622 36.401 10.3322 38.3638 14.0031C40.3266 17.6741 40.9577 21.913 40.1494 25.9976C39.3411 30.0822 37.1435 33.7599 33.9311 36.4039C30.7186 39.048 26.69 40.4949 22.5317 40.4982Z" fill="#4277DD"/>
</svg>
