<svg width="57" height="45" viewBox="0 0 57 45" fill="none" xmlns="http://www.w3.org/2000/svg">
<path d="M11.3657 2.3196e-08H45.6343C46.0137 -5.26051e-05 46.3877 0.0894497 46.7257 0.261191C47.0637 0.432932 47.3562 0.682036 47.5793 0.988144L56.7703 13.5942C56.9337 13.8185 57.0142 14.0923 56.998 14.3691C56.9817 14.6459 56.8699 14.9086 56.6814 15.1124L29.3823 44.6152C29.166 44.8484 28.8658 44.9865 28.5476 44.9991C28.2294 45.0116 27.9191 44.8977 27.685 44.6823C27.6682 44.6679 18.5492 34.8129 0.318611 15.1124C0.130135 14.9086 0.0182676 14.6459 0.00204928 14.3691C-0.0141691 14.0923 0.0662634 13.8185 0.229658 13.5942L9.4207 0.988144C9.64376 0.682036 9.93626 0.432932 10.2743 0.261191C10.6123 0.0894497 10.9863 -5.26051e-05 11.3657 2.3196e-08ZM12.5918 4.79681L5.86017 14.0307L28.5 38.4944L51.1398 14.0307L44.4082 4.79681H12.5918Z" fill="#67AC65"/>
<path d="M27.14 13.9L23.24 23H20.705L16.818 13.9H19.6L22.07 19.828L24.592 13.9H27.14ZM27.6727 13.9H30.2467V23H27.6727V13.9ZM36.238 13.9C37.0613 13.9 37.7763 14.0387 38.383 14.316C38.9896 14.5847 39.4576 14.9747 39.787 15.486C40.1163 15.9887 40.281 16.5823 40.281 17.267C40.281 17.9517 40.1163 18.5453 39.787 19.048C39.4576 19.5507 38.9896 19.9407 38.383 20.218C37.7763 20.4867 37.0613 20.621 36.238 20.621H34.652V23H32.078V13.9H36.238ZM36.082 18.593C36.6106 18.593 37.0093 18.4803 37.278 18.255C37.5466 18.021 37.681 17.6917 37.681 17.267C37.681 16.8423 37.5466 16.513 37.278 16.279C37.0093 16.045 36.6106 15.928 36.082 15.928H34.652V18.593H36.082Z" fill="#67AC65"/>
</svg>
